inDegrees=no
num_controls=7
num_derivatives=13
num_iterations=149
num_multipliers=7
num_parameters=0
num_slacks=7
num_states=26
objective=6.577886
objective_accelerations=0.677592
objective_balance=0.070455
objective_effort=0.546145
objective_height=5.188414
objective_ligament=0.095279
solver_duration=1278.840191
status=Solve_Succeeded
success=true
DataType=double
version=3
OpenSimVersion=4.4-2022-07-23-0e9fedc
endheader
time	/jointset/ground_pelvis/pelvis_tilt/value	/jointset/ground_pelvis/pelvis_tx/value	/jointset/ground_pelvis/pelvis_ty/value	/jointset/hip_r/hip_flexion_r/value	/jointset/hip_r/hip_adduction_r/value	/jointset/hip_r/hip_rotation_r/value	/jointset/back/lumbar_extension/value	/jointset/patellofemoral_r/patellar_flexion_r/value	/jointset/knee_r/knee_flexion_r/value	/jointset/knee_r/knee_adduction_r/value	/jointset/knee_r/knee_rotation_r/value	/jointset/ankle_r/ankle_angle_r/value	/jointset/subtalar_r/subtalar_angle_r/value	/jointset/ground_pelvis/pelvis_tilt/speed	/jointset/ground_pelvis/pelvis_tx/speed	/jointset/ground_pelvis/pelvis_ty/speed	/jointset/hip_r/hip_flexion_r/speed	/jointset/hip_r/hip_adduction_r/speed	/jointset/hip_r/hip_rotation_r/speed	/jointset/back/lumbar_extension/speed	/jointset/patellofemoral_r/patellar_flexion_r/speed	/jointset/knee_r/knee_flexion_r/speed	/jointset/knee_r/knee_adduction_r/speed	/jointset/knee_r/knee_rotation_r/speed	/jointset/ankle_r/ankle_angle_r/speed	/jointset/subtalar_r/subtalar_angle_r/speed	/forceset/tau_hip_flexion_r	/forceset/tau_hip_adduction_r	/forceset/tau_hip_rotation_r	/forceset/tau_knee_flexion_r	/forceset/tau_ankle_angle_r	/forceset/tau_subtalar_angle_r	/forceset/tau_lumbar_extension	lambda_cid13_p0	lambda_cid14_p0	lambda_cid14_p1	lambda_cid14_p2	lambda_cid14_p3	lambda_cid14_p4	lambda_cid14_p5	/jointset/ground_pelvis/pelvis_tilt/accel	/jointset/ground_pelvis/pelvis_tx/accel	/jointset/ground_pelvis/pelvis_ty/accel	/jointset/hip_r/hip_flexion_r/accel	/jointset/hip_r/hip_adduction_r/accel	/jointset/hip_r/hip_rotation_r/accel	/jointset/back/lumbar_extension/accel	/jointset/patellofemoral_r/patellar_flexion_r/accel	/jointset/knee_r/knee_flexion_r/accel	/jointset/knee_r/knee_adduction_r/accel	/jointset/knee_r/knee_rotation_r/accel	/jointset/ankle_r/ankle_angle_r/accel	/jointset/subtalar_r/subtalar_angle_r/accel	gamma_cid13_p0	gamma_cid14_p0	gamma_cid14_p1	gamma_cid14_p2	gamma_cid14_p3	gamma_cid14_p4	gamma_cid14_p5
1.5	-0.1958763585350901	0.02976108079449571	0.8283572699513406	0.898378417839338	-0.2434312222792609	-0.09124185034979683	-0.2977899490844311	0.8042434249958698	0.8042434249959065	0.06329627089047078	0.1745305117791938	0.2720556820847042	0.04034821066879411	0.4607789417563535	0.1842348447914695	0.5053684580135398	-2.086260515684476	0.03539738330801449	-0.4533880028900235	0.6991779642568549	-2.156704602349051	-2.156704602349027	0.1749210702672604	8.58320023434033e-05	-0.6253816727789974	-0.1152925500121515	-0.1236831858269506	-0.01752016457791034	0.0146977989769491	-0.3344544958628765	0.06008385132641737	-0.007648822289851116	0.1611030681001208	-25.11308684388283	-21.40485882708481	-3.314761391532958	-3.300633140486656	1.728873765494436	-649.1941185855516	57.8815921568216	0.2933501543626181	0.4626412336105235	-0.6281279716074785	-1.037826108608156	0.1664632975600288	-0.3158370509022643	1.557499478627516	-1.371467592216056	-1.371467592216038	0.5682628167638669	-0.0379112094093176	-0.7185724545176676	0.09255874534562156	1.78560379472371e-07	1.11704477013652e-07	-1.771372637753236e-06	8.705621631616874e-07	1.28666854072908e-07	2.349507910499471e-07	-1.177665152990221e-06
1.51	-0.191254287462589	0.03162632527945576	0.8333784677210865	0.8774661695652366	-0.2430698158383341	-0.09579204063233017	-0.2907216439608313	0.7826106286221307	0.7826106286221604	0.06507513545577977	0.1745312038980531	0.2657665609132747	0.0391988348466988	0.4635633416341195	0.1887851337670962	0.498760119506475	-2.095897058559166	0.03688021959160499	-0.4566259674867585	0.7143779859566107	-2.169543342261141	-2.169543342261117	0.180851851027357	5.086838241021596e-05	-0.6323445403908501	-0.1145659997024054	-0.1162924214527982	-0.01920245045078612	0.01416997258614916	-0.3305674028649481	0.06357578152452367	-0.008833584386314168	0.1544910274649325	-26.45418965944441	-20.06895172607361	-3.494468961893237	-3.387265480375206	1.303230810716797	-644.2304509119359	57.59826834288372	0.2602067423030023	0.44691188898268	-0.6937778959399109	-0.8827410254648889	0.1386236266203016	-0.3238903291788472	1.485492339786773	-1.193416940780933	-1.193416940780865	0.6052360230799771	0.01360827510348916	-0.6703960682218814	0.06499941636220728	1.903039471122571e-07	1.206223835770397e-07	-1.894599796616063e-06	9.253714036210335e-07	1.325981759945929e-07	2.625669925131039e-07	-1.2610961786258e-06
1.52	-0.186606528023743	0.03353621048606097	0.8383302638846241	0.8564663213326762	-0.2426936950679907	-0.1003738333938623	-0.283504490855407	0.760858776899261	0.7608587768992743	0.0669132578921902	0.1745315258234143	0.2594107606349862	0.03805718377621598	0.46591661502466	0.1931629891205001	0.4914881367719749	-2.103780507376478	0.03834024918966147	-0.4597084986882839	0.7289475606218486	-2.180515672176253	-2.180515672176228	0.1867726444853458	1.179329803409159e-05	-0.638717494150818	-0.1137475996897371	-0.1089016570786645	-0.02088473632366541	0.01364214619530371	-0.3266803098670242	0.06706771172262771	-0.01001834648278227	0.1478789868297296	-27.77800584591674	-18.73790230522825	-3.670078043476199	-3.480204645990506	0.8749039115147618	-639.3478797117206	57.38585683785907	0.2071248569175668	0.4281545091658889	-0.7608568170945182	-0.6872072971324346	0.1619019604532695	-0.2847503718602052	1.431410071723926	-0.9981855928202831	-0.9981855928202796	0.5662653563423437	-0.03873350229802894	-0.6005896841408059	0.1109286859300732	2.016847889312526e-07	1.295045539280886e-07	-2.015239818488367e-06	9.780553490833943e-07	1.357446150158723e-07	2.92934612860875e-07	-1.342345488768285e-06
1.53	-0.1819373434267789	0.03548894013926093	0.8432061153242677	0.8353963529030194	-0.2423031633875425	-0.1049857727143051	-0.2761450827459799	0.7390065650270414	0.7390065650270125	0.06881063276909645	0.1745315608526881	0.2529941708244779	0.03692408514654279	0.467845859891784	0.1973462810295911	0.4835783234414676	-2.10990779623486	0.03976082998257534	-0.4626518291044514	0.7428078799476473	-2.189599500566114	-2.189599500566093	0.1927000401618179	-7.032051321636743e-06	-0.6444969434356121	-0.1128567843304651	-0.1014249279053822	-0.02276095799129415	0.01308078837014162	-0.3230259103692654	0.07069365190152203	-0.01129789748446778	0.1411906391451064	-29.08243158651338	-17.38503669058064	-3.886107377130522	-3.563188805482365	0.486027232619887	-634.7085877961524	57.15626663613094	0.1746689040204341	0.4079453171150279	-0.8215489387208941	-0.529666136542109	0.1313167343214715	-0.2946928801704453	1.344415665728349	-0.8144449200598833	-0.8144449200604689	0.6053538853836342	0.01638327211143364	-0.5510442122650485	0.08023767823842218	2.126802345655517e-07	1.383487545535275e-07	-2.133131007308241e-06	1.028481168611459e-06	1.380571159554708e-07	3.262256157735486e-07	-1.421276726199358e-06
